      <svg xmlns="http://www.w3.org/2000/svg" viewBox="0 0 512 512" class="moon">
        <g transform="translate(0 512) scale(.1 -.1)">
          <path d="m2090 5105c-248-51-443-118-659-226-514-256-909-652-1161-1163-94-191-139-311-185-490-127-500-110-999 51-1468 133-389 331-706 624-998 403-404 875-642 1460-736 147-24 529-24 693 0 539 78 981 283 1390 644 362 319 647 793 766 1270 46 186 56 256 42 299-22 71-80 116-151 117-73 1-104-19-181-116-307-390-733-627-1233-689-119-14-385-7-501 15-582 106-1066 469-1321 991-120 246-171 452-181 731-21 586 230 1126 695 1493 96 75 117 107 117 177 0 85-67 155-153 160-26 1-76-3-112-11zm110-149c0-2-26-23-57-47-81-60-254-230-325-318-213-264-353-573-415-916-22-126-25-508-5-625 62-346 195-651 395-910 72-93 228-250 327-329 266-213 571-349 930-413 117-20 499-17 625 5 343 62 652 202 916 415 88 71 258 244 318 325 24 32 46 56 48 54s-8-60-23-128c-127-606-501-1155-1027-1505-780-521-1798-535-2602-36-295 183-594 482-777 777-335 539-445 1180-308 1795 138 621 515 1158 1060 1511 136 88 374 201 530 253 148 49 390 106 390 92z"></path>
        </g>
      </svg>