<svg xmlns="http://www.w3.org/2000/svg" viewBox="0 0 512 512" class="sun">
        <g transform="translate(0 512) scale(.1 -.1)"><path d="m2513 5105c-59-25-63-46-63-320 0-266 4-288 54-315 33-17 79-17 112 0 50 27 54 49 54 315 0 275-4 295-65 321-42 17-51 17-92-1z"></path><path d="m754 4366c-28-28-34-41-34-77 0-42 3-45 188-231l187-188h47c39 0 52 5 77 31 26 25 31 38 31 77v47l-188 187c-186 185-189 188-231 188-36 0-49-6-77-34z"></path><path d="m4058 4212-188-187v-47c0-39 5-52 31-77 25-26 38-31 77-31h46l188 188c186 186 188 188 188 231 0 36-6 49-34 77s-41 34-77 34c-42 0-45-3-231-188z"></path><path d="m2440 4224c-453-50-760-192-1056-488-264-264-419-570-475-936-17-109-17-371 0-480 56-366 211-672 475-936s570-419 936-475c109-17 371-17 480 0 366 56 672 211 936 475 225 225 358 455 438 758 38 143 50 249 50 418 0 219-30 388-104 590-137 372-450 719-813 901-143 72-315 128-474 154-89 15-329 26-393 19zm335-235c305-46 582-186 805-409 567-567 567-1473 0-2040s-1473-567-2040 0-567 1473 0 2040c328 328 777 476 1235 409z"></path><path d="m54 2651c-20-12-37-34-44-55-16-49 2-101 44-127 28-17 52-19 279-19 268 0 289 4 317 54 17 33 17 79 0 112-28 50-49 54-317 54-227 0-251-2-279-19z"></path><path d="m4512 2657c-73-41-73-155 0-193 21-11 81-14 275-14 227 0 251 2 279 19 42 26 60 78 44 127-7 21-24 43-44 55-28 17-52 19-281 19-181-1-256-4-273-13z"></path><path d="m908 1062c-185-186-188-189-188-231 0-36 6-49 34-77s41-34 77-34c43 0 45 2 231 188l188 188v46c0 39-5 52-31 77-25 26-38 31-77 31h-47l-187-188z"></path><path d="m3901 1219c-26-25-31-38-31-77v-47l188-187c186-185 189-188 231-188 36 0 49 6 77 34s34 41 34 77c0 43-2 45-188 231l-188 188h-46c-39 0-52-5-77-31z"></path><path d="m2540 663c-87-28-90-37-90-330 0-227 2-251 19-279 40-66 142-66 182 0 17 28 19 52 19 279 0 266-4 291-52 314-32 16-60 22-78 16z"></path></g>
      </svg>